<svg xmlns="http://www.w3.org/2000/svg" viewBox="0 0 1020.47 398.46"><g id="Calque_2" data-name="Calque 2"><g id="Calque_1-2" data-name="Calque 1"><path d="M837.47,75.53c9.84,0,19.68,0,29.52,0,7.65-.06,15.31-.4,23-.38,10.19,0,20.38.2,30.56.45,6.22.15,12.42.59,18.64.83,2.17.09,2.92,1.15,2.71,3.19a77.21,77.21,0,0,1-5.54,23.12,7.32,7.32,0,0,1-6.8,4.77c-4.93.15-9.89.14-14.82-.12-10.71-.58-21.41-1.65-32.13-1.94a63.76,63.76,0,0,0-23.45,3.68c-13.09,4.7-22.07,13.35-25,27.2-2,9.23-1.74,18.61,1.67,27.5,3.24,8.45,9.41,14.82,16.22,20.67,13.47,11.56,29.08,19.64,44.51,28.06,10.55,5.75,21.28,11.27,31.25,17.91,7.63,5.09,14.23,11.73,21.24,17.75,11,9.44,20.87,20,28.69,32.14,4.36,6.77,7.48,14.36,10.91,21.69,2.91,6.25,5,12.93,9.73,18.18,1.73,1.92,3.55,3.76,5.43,5.53s4.14,3.28,5.83,5.24a19.92,19.92,0,0,1,4.16,6.49c3.12,9.5,5.84,19.14,6.65,29.14.34,4.23-.24,8.54-.34,12.81,0,.92.44,1.87.3,2.75a17.61,17.61,0,0,1-1.12,3.8,41.25,41.25,0,0,1-2.2,4.94c-2.11,3.82-5.64,5.22-9.8,5.32-14.27.32-28.54.71-42.82.89-11.33.15-22.66.07-34,0-6.23-.05-12.47-.47-18.7-.38-9.23.13-18.46.57-27.7.88-4,.14-7.91.35-11.87.41-12.33.19-24.66.43-37,.43-11.8,0-23.6-.25-35.4-.43q-10.61-.16-21.19-.46a49.09,49.09,0,0,1-6-.64,6.72,6.72,0,0,1-5.77-5.59c-.9-3.88-1.75-7.78-2.44-11.7-.6-3.45.31-4.66,3.85-5.15a71,71,0,0,0,22.25-6.82c5-2.51,8-6.68,10.25-11.53,2.91-6.38,4.92-13,3.21-20.1a38.53,38.53,0,0,0-7.09-14.62c-4.66-6.05-10.63-9.79-17.44-12.55-4.81-1.95-6.82-5.83-7.86-10.52-2.22-10-8.1-17.34-16.86-22.47-2.78-1.63-5.61-3.2-8.43-4.77-3-1.7-3.94-4.2-3.84-7.68.19-7.1.61-14.5-2.72-21-5.28-10.27-13.82-16.26-25.68-17.22-11.55-.93-22.91.87-34.35,1.69-5.37.38-10.79.24-16.18.24-10.6,0-21.19-.12-31.78-.06-16.83.1-33.51-1.27-49.83-5.46-8.49-2.18-16.85-4.88-25.22-7.5-3.63-1.14-4.33-2.52-3.9-6.26,1.11-9.64-.46-18.55-7.18-26a6.08,6.08,0,0,0-1.83-1.62c-8.16-3.55-16.26-6.9-25.57-6.47-12.59.58-25.2.44-37.8.55-8.24.08-16.47.06-24.71.06l-32.2,0c-4.29,0-8.58,0-12.87,0-13.68.18-27.36.46-41,.59-6.91.07-13.83-.12-20.75-.14-6.13,0-12.27.05-18.4.06q-101,.19-201.92.4c-6.74,0-13.48.36-20.23.39-15.1.07-30.2,0-45.3,0H13.8c-5.53,0-8.25-2.31-9.57-7.73A139.3,139.3,0,0,1,.12,128.65c.44-10,.43-20.18,4.29-29.71.83-2,2.3-3.82,3.35-5.78.28-.53.39-1.7.11-1.9-3.55-2.42-3.41-6-3.34-9.66.12-6.46,0-12.93.06-19.39.16-8.48.65-16.94.62-25.41,0-3.41,2.58-4.59,4.2-6.64.56-.7,1.19-1.65,1.94-1.83,2.79-.67,2.73-2.67,2.72-4.86A5.44,5.44,0,0,1,17,18.53a33.34,33.34,0,0,0,3.32-2.66c2.45-1.92,5.31-2.19,8.3-2.23a3.06,3.06,0,0,0,2.26-1.4C33.36,7,40.44,4,45.89,5.91,52,8.06,58,10.35,64.22,12.2c12.2,3.64,24.49,7,36.71,10.54,3.17.92,6.24,2.18,9.4,3.12a22.44,22.44,0,0,0,4.35.58c.82.07,1.65-.05,2.48-.05l66.79,0a10.16,10.16,0,0,1,9.36,6.48c.05.14.08.4.14.41a51.21,51.21,0,0,0,6.51.63c.65,0,1.43-1.07,1.89-1.81a5,5,0,0,0,.31-2c.35-2.77,1.31-3.7,4.09-3.73,4.74,0,9.48,0,14.22,0,6.06-.08,12.13-.23,18.19-.4,3.73-.1,8,2.73,9.26,6.19.1.29.16.81.28.82a56.57,56.57,0,0,0,7.89.43c.58,0,1.39-1.78,1.53-2.82.53-4,1.08-4.62,5.22-4.62l32.27,0a7.86,7.86,0,0,1,7.46,5.61,2.25,2.25,0,0,0,2.65,2c2-.09,4.06,0,6.07-.23a2.54,2.54,0,0,0,1.62-1.58c1.37-5.31,1.31-5.68,6.85-5.87,10.74-.37,21.5-.34,32.25-.36,2.47,0,4.91,2.51,5.44,5.56.29,1.69,1.08,2.09,2.57,2,1.8-.06,3.61-.11,5.41,0,2.21.15,3.13-.87,3.35-3,.46-4.29,1-4.73,5.32-4.74q52.8-.23,105.59-.47c6.59,0,13.19-.45,19.77-.21,1.77.07,3.5,1.86,5.2,2.94.47.31.7,1,1.12,1.39,1.23,1.2,2.16,3.47,4.41,1.12.42-.45,1.59-.24,2.41-.24,8.57,0,17.16.24,25.72-.07,21.93-.8,43.86-1.7,65.81-1.31,4.8.08,4.76,0,4.82,4.82.1,8,.23,16.07.45,24.1,0,.59.9,1.65,1.39,1.65,10.66.11,21.33.07,32,.15,1.93,0,2.32-.71,2.32-2.55,0-6.83.25-13.65.37-20.48.08-4.85,4.66-9.78,9.92-9.07,3.71.5,7.48.55,11.23.79a22.69,22.69,0,0,0,2.47.12c6.82-.39,13.64-1,20.46-1.16,5.18-.15,10.36.27,15.54.25q8.91,0,17.8-.48a3.7,3.7,0,0,0,2.6-1.86,9.47,9.47,0,0,1,5.16-5.22c6.76-3,13.43-6.25,20-9.6,6.05-3.07,11.84-6.66,18-9.48,2.11-1,5-.49,7.47-.31.5,0,1.06,1.6,1.3,2.54,1.34,5.15,2.22,10.46,4,15.43a42.14,42.14,0,0,1,2.27,7.12c.11.6,1.48,1.38,2.28,1.39,5.86.11,11.74.15,17.6,0,2.72-.08,4.91.39,6.84,2.53s4.25,3.72,6.26,5.7a3.88,3.88,0,0,1,.76,2.46c.13,5.48.24,11,.17,16.44,0,1.27-.74,2.53-1.12,3.8a20.52,20.52,0,0,0-1,3.91c-.14,1.71.11,3.45.13,5.17,0,1.51-.07,2.91,1.49,4,.6.41.75,1.74.8,2.66.07,1.64.77,2.18,2.39,2.16C826,75.49,831.75,75.53,837.47,75.53ZM619.13,132.84c-.76,0-1.51,0-2.26,0-12.85-.43-23.53,4.29-32.19,13.66a41.43,41.43,0,0,0-9.4,17.35c-1.69,6-2.09,11.68.25,17.73A42.38,42.38,0,0,0,592.13,202c3.27,2.18,6.86,3.9,10.33,5.8a45.81,45.81,0,0,0,22.11,6.1c11.79,0,23.18-2.73,34.3-6.41a45.82,45.82,0,0,0,20.4-14,36,36,0,0,0,8.22-15.76,6,6,0,0,0-.11-2.37c-.2-1.06-.64-2.09-.82-3.15-.74-4.43-1.32-8.88-2.16-13.28a3.07,3.07,0,0,0-3.16-2.86c-2.77,0-5.54-.29-8.32-.4-1.23-.05-1.76.49-2,1.85-1,6.8-2.22,13.64-5.44,19.77s-6.22,12.33-10.58,17.43c-4.56,5.33-10.6,9.42-16.09,13.94-.58.47-1.85.11-2.79.14.05-1-.27-2.24.23-2.81,1.67-1.89,3.65-3.5,5.47-5.26,6.86-6.63,11.32-14.64,12.61-24.07,1-7.63-.51-15.08-3.44-22.21-2.07-5-5.44-9.08-9.26-12.89-5.76-5.73-12.17-9.73-20.73-8.8A15.43,15.43,0,0,1,619.13,132.84Zm16.35-47.21,0,.28c2.62,0,5.26.11,7.88-.08.69,0,1.87-1,1.89-1.56.09-3.43,0-6.87-.19-10.3-.05-1.36-.88-1.92-2.29-1.82-2,.15-4,.18-6,.19-8.47,0-16.93,0-25.39.15a2.66,2.66,0,0,0-1.85,1.83,78.41,78.41,0,0,0,0,9.45c0,.74,1.09,2,1.73,2,4.86.29,9.74.44,14.61.42C629.06,86.2,632.27,85.84,635.48,85.63Z"/></g></g></svg>